<svg id="Layer_1" data-name="Layer 1" xmlns="http://www.w3.org/2000/svg" viewBox="0 0 69.18 45.3"><defs><style>.cls-1{fill:#fff;}</style></defs><path class="cls-1" d="M30.48,22.34a2,2,0,0,0-1.31-1.58,2,2,0,0,0-2,.41c-.05,0-4.81,4.41-8.73,8.1a10.52,10.52,0,0,0-3.11,9.5,8,8,0,0,0,5.45,6,9.06,9.06,0,0,0,3,.53h0a8,8,0,0,0,6.09-2.88,10.69,10.69,0,0,0,2.43-8.31C31.5,28.78,30.49,22.4,30.48,22.34ZM26.82,39.81a4,4,0,0,1-3.07,1.49A5.15,5.15,0,0,1,22.09,41a4,4,0,0,1-2.85-3.05,6.57,6.57,0,0,1,1.92-5.76c2-1.89,4.25-3.95,5.95-5.52.35,2.28.8,5.29,1.2,8A6.7,6.7,0,0,1,26.82,39.81Z"/><path class="cls-1" d="M17.14,19.07c-.78-5.33-1.78-11.7-1.79-11.77A2,2,0,0,0,12,6.14s-4.8,4.4-8.73,8.09a10.52,10.52,0,0,0-3.1,9.51,8,8,0,0,0,5.45,6,9,9,0,0,0,3,.53h0a8,8,0,0,0,6.09-2.87A10.72,10.72,0,0,0,17.14,19.07Zm-5.45,5.7a4,4,0,0,1-3.07,1.49A5.08,5.08,0,0,1,7,26,4.07,4.07,0,0,1,4.1,22.91,6.59,6.59,0,0,1,6,17.15c2-1.89,4.24-4,5.94-5.53.35,2.29.81,5.3,1.21,8A6.67,6.67,0,0,1,11.69,24.77Z"/><path class="cls-1" d="M69.09,33.93c-.69-4.72-1.57-10.3-1.57-10.3a2,2,0,0,0-3.32-1.16S60,26.29,56.56,29.55a9.5,9.5,0,0,0-2.79,8.55,7.23,7.23,0,0,0,4.93,5.42,8,8,0,0,0,2.69.48h0a7.21,7.21,0,0,0,5.51-2.6A9.6,9.6,0,0,0,69.09,33.93Zm-5.21,4.85a3.65,3.65,0,0,1-6.19-1.51,5.48,5.48,0,0,1,1.61-4.8c1.63-1.54,3.41-3.19,4.85-4.52.29,1.93.66,4.34,1,6.55A5.6,5.6,0,0,1,63.88,38.78Z"/><path class="cls-1" d="M47.45,20.76a2,2,0,0,0-3.32-1.16s-3.24,3-6,5.51a7.81,7.81,0,0,0-2.29,7.06A6,6,0,0,0,40,36.72a6.78,6.78,0,0,0,2.23.4h0a6.08,6.08,0,0,0,4.63-2.18,8,8,0,0,0,1.8-6.17C48.14,25.1,47.45,20.76,47.45,20.76Zm-3.6,11.56a2.09,2.09,0,0,1-1.61.8,2.62,2.62,0,0,1-.91-.18,2.09,2.09,0,0,1-1.53-1.6A3.82,3.82,0,0,1,40.92,28l3.15-2.94c.21,1.33.44,2.85.64,4.27A3.92,3.92,0,0,1,43.85,32.32Z"/><path class="cls-1" d="M38.3,18h0a6.09,6.09,0,0,0,4.63-2.17,8,8,0,0,0,1.8-6.17c-.54-3.67-1.22-8-1.22-8A2,2,0,0,0,40.18.53s-3.24,3-5.94,5.5a7.84,7.84,0,0,0-2.3,7.07,6.07,6.07,0,0,0,4.12,4.55A6.82,6.82,0,0,0,38.3,18ZM37,9,40.13,6c.2,1.33.43,2.85.64,4.27a3.94,3.94,0,0,1-.87,3,2,2,0,0,1-1.6.79h0a2.65,2.65,0,0,1-.92-.17,2.09,2.09,0,0,1-1.52-1.6A3.75,3.75,0,0,1,37,9Z"/></svg>