<svg id="Layer_1" data-name="Layer 1" xmlns="http://www.w3.org/2000/svg" viewBox="0 0 69.65 46.89"><defs><style>.cls-1{fill:#fff;}</style></defs><path class="cls-1" d="M12.77,5.71a18.4,18.4,0,0,0,4.09-.46l.17,0a14.18,14.18,0,0,0,2.49-.86A9.08,9.08,0,0,1,23.8,3.5a9.08,9.08,0,0,1,4.28.86,14.18,14.18,0,0,0,2.49.86l.17,0a18.92,18.92,0,0,0,4.08.46,18.19,18.19,0,0,0,4.08-.46l.18,0a14.48,14.48,0,0,0,2.49-.86,9.05,9.05,0,0,1,4.28-.86,9,9,0,0,1,4.27.86,14.62,14.62,0,0,0,2.5.86l.17,0a18.83,18.83,0,0,0,4.08.46,1.75,1.75,0,0,0,0-3.5,15.23,15.23,0,0,1-3.4-.39l-.23-.05a11.19,11.19,0,0,1-1.75-.63A12.53,12.53,0,0,0,45.85,0,12.58,12.58,0,0,0,40.2,1.14a10.83,10.83,0,0,1-1.75.63l-.22,0a14.37,14.37,0,0,1-3.41.4,15.23,15.23,0,0,1-3.4-.39l-.22-.05a11,11,0,0,1-1.76-.63A12.53,12.53,0,0,0,23.8,0a12.58,12.58,0,0,0-5.65,1.14,10.5,10.5,0,0,1-1.75.63l-.22.05a15.49,15.49,0,0,1-3.41.39,1.75,1.75,0,0,0,0,3.5Z"/><path class="cls-1" d="M12.77,11a15,15,0,0,1,2.91.29l.5.11.21,0a11.61,11.61,0,0,1,1.76.63,12.44,12.44,0,0,0,5.65,1.14,12.39,12.39,0,0,0,5.64-1.14,12.45,12.45,0,0,1,1.76-.63l.21,0,.55-.12a14.75,14.75,0,0,1,5.77,0l.5.11.21,0a11.61,11.61,0,0,1,1.76.63,12.44,12.44,0,0,0,5.65,1.14,12.39,12.39,0,0,0,5.64-1.14,12,12,0,0,1,1.76-.63l.21,0,.55-.12A14.88,14.88,0,0,1,56.87,11a1.75,1.75,0,0,0,0-3.5,19.35,19.35,0,0,0-3.57.35l-.52.11-.16,0a14.62,14.62,0,0,0-2.5.86,9,9,0,0,1-4.27.86,9.05,9.05,0,0,1-4.28-.86A14.48,14.48,0,0,0,39.08,8l-.17,0-.57-.12a18.39,18.39,0,0,0-7.09,0l-.51.11-.17,0a14.18,14.18,0,0,0-2.49.86,9.08,9.08,0,0,1-4.28.86,9.08,9.08,0,0,1-4.28-.86A14.18,14.18,0,0,0,17,8l-.17,0-.56-.12a19.3,19.3,0,0,0-3.53-.34,1.75,1.75,0,0,0,0,3.5Z"/><path class="cls-1" d="M1.75,22.75a19,19,0,0,0,4.09-.46l.17,0A14.79,14.79,0,0,0,8.5,21.4a9,9,0,0,1,4.27-.86,9.05,9.05,0,0,1,4.28.86,14.48,14.48,0,0,0,2.49.86l.17,0a19,19,0,0,0,4.09.46,18.83,18.83,0,0,0,4.08-.46l.17,0a14.62,14.62,0,0,0,2.5-.86,9,9,0,0,1,4.27-.86,9.05,9.05,0,0,1,4.28.86,14.48,14.48,0,0,0,2.49.86l.17,0a19,19,0,0,0,4.09.46,18.83,18.83,0,0,0,4.08-.46l.17,0a14.18,14.18,0,0,0,2.49-.86,9.08,9.08,0,0,1,4.28-.86,9.05,9.05,0,0,1,4.28.86,14.48,14.48,0,0,0,2.49.86l.17,0a19,19,0,0,0,4.09.46,1.75,1.75,0,0,0,0-3.5,14.37,14.37,0,0,1-3.41-.4l-.22,0a11.88,11.88,0,0,1-1.75-.63A12.58,12.58,0,0,0,56.87,17a12.53,12.53,0,0,0-5.64,1.14,11.32,11.32,0,0,1-1.76.63l-.22,0a14.23,14.23,0,0,1-3.4.4,14.13,14.13,0,0,1-3.4-.4l-.23,0a11.88,11.88,0,0,1-1.75-.63A12.58,12.58,0,0,0,34.82,17a12.53,12.53,0,0,0-5.64,1.14,11,11,0,0,1-1.76.63l-.22,0a14.65,14.65,0,0,1-6.8,0l-.23,0a11.88,11.88,0,0,1-1.75-.63A12.58,12.58,0,0,0,12.77,17a12.53,12.53,0,0,0-5.64,1.14,11,11,0,0,1-1.76.63l-.21,0a14.47,14.47,0,0,1-3.41.4,1.75,1.75,0,0,0,0,3.5Z"/><path class="cls-1" d="M67.9,24.34a19,19,0,0,0-4.09.45l-.17,0a14.56,14.56,0,0,0-2.49.85,9,9,0,0,1-4.28.86,9,9,0,0,1-4.28-.86,14.26,14.26,0,0,0-2.49-.85.41.41,0,0,0-.16,0c-.13,0-.32-.08-.56-.12a18.44,18.44,0,0,0-3.53-.34,19,19,0,0,0-4.09.45l-.17,0a14.56,14.56,0,0,0-2.49.85,8.93,8.93,0,0,1-4.28.86,9,9,0,0,1-4.28-.86,14.26,14.26,0,0,0-2.49-.85.45.45,0,0,0-.16,0,18.14,18.14,0,0,0-4.09-.46,19,19,0,0,0-4.09.45l-.17,0a14.56,14.56,0,0,0-2.49.85,8.93,8.93,0,0,1-4.28.86,8.92,8.92,0,0,1-4.27-.86A14.87,14.87,0,0,0,6,24.83a.51.51,0,0,0-.17,0,18.14,18.14,0,0,0-4.09-.46,1.75,1.75,0,0,0,0,3.5,15.23,15.23,0,0,1,3.4.39l.22,0a12,12,0,0,1,1.76.64A12.56,12.56,0,0,0,12.77,30a12.61,12.61,0,0,0,5.65-1.13,12,12,0,0,1,1.76-.64l.21,0a15.06,15.06,0,0,1,6.81,0l.22,0a12.44,12.44,0,0,1,1.76.64A12.56,12.56,0,0,0,34.82,30a12.61,12.61,0,0,0,5.65-1.13,11.6,11.6,0,0,1,1.76-.64l.21,0a15.38,15.38,0,0,1,3.41-.39,15.21,15.21,0,0,1,2.88.28l.52.11.21,0a12.15,12.15,0,0,1,1.77.64A12.56,12.56,0,0,0,56.87,30a12.61,12.61,0,0,0,5.65-1.13,11.6,11.6,0,0,1,1.76-.64l.21,0a15.26,15.26,0,0,1,3.41-.39,1.75,1.75,0,0,0,0-3.5Z"/><path class="cls-1" d="M56.87,35.91a14.23,14.23,0,0,1-3.4-.4l-.23,0a12.31,12.31,0,0,1-1.75-.63,12.39,12.39,0,0,0-5.64-1.14,12.44,12.44,0,0,0-5.65,1.14,11.88,11.88,0,0,1-1.75.63l-.22,0a14.69,14.69,0,0,1-6.81,0l-.22,0a12,12,0,0,1-1.76-.63A12.39,12.39,0,0,0,23.8,33.7a12.44,12.44,0,0,0-5.65,1.14,11.88,11.88,0,0,1-1.75.63l-.22,0a14.37,14.37,0,0,1-3.41.4,1.75,1.75,0,1,0,0,3.5A19,19,0,0,0,16.86,39l.17,0a14.18,14.18,0,0,0,2.49-.86,9.08,9.08,0,0,1,4.28-.86,9.08,9.08,0,0,1,4.28.86,14.18,14.18,0,0,0,2.49.86l.17,0a18.37,18.37,0,0,0,8.17,0l.17,0a14.48,14.48,0,0,0,2.49-.86,9.05,9.05,0,0,1,4.28-.86,9,9,0,0,1,4.27.86,14.62,14.62,0,0,0,2.5.86l.17,0a18.83,18.83,0,0,0,4.08.46,1.75,1.75,0,1,0,0-3.5Z"/><path class="cls-1" d="M56.87,41.18a19.25,19.25,0,0,0-3.57.35l-.52.11-.16,0a14.62,14.62,0,0,0-2.5.86,9,9,0,0,1-4.27.86,9.05,9.05,0,0,1-4.28-.86,14.48,14.48,0,0,0-2.49-.86l-.17,0-.57-.12a18.39,18.39,0,0,0-7.09,0l-.52.11-.16,0a14.18,14.18,0,0,0-2.49.86,9.08,9.08,0,0,1-4.28.86,9.05,9.05,0,0,1-4.28-.86A14.48,14.48,0,0,0,17,41.67l-.17,0-.56-.12a19.3,19.3,0,0,0-3.53-.34,1.75,1.75,0,0,0,0,3.5,15,15,0,0,1,2.91.29,3.44,3.44,0,0,1,.5.11l.21,0a11.61,11.61,0,0,1,1.76.63,12.44,12.44,0,0,0,5.65,1.14,12.39,12.39,0,0,0,5.64-1.14,12.16,12.16,0,0,1,1.77-.63l.21,0A4,4,0,0,1,32,45a14.75,14.75,0,0,1,5.77,0l.5.11.21,0a11.61,11.61,0,0,1,1.76.63,12.44,12.44,0,0,0,5.65,1.14,12.39,12.39,0,0,0,5.64-1.14,12.45,12.45,0,0,1,1.76-.63l.21,0A5.07,5.07,0,0,1,54,45a14.88,14.88,0,0,1,2.86-.28,1.75,1.75,0,0,0,0-3.5Z"/></svg>