<svg id="Layer_1" data-name="Layer 1" xmlns="http://www.w3.org/2000/svg" viewBox="0 0 43.78 68.55"><defs><style>.cls-1{fill:#fff;}</style></defs><path class="cls-1" d="M25.55,39.33V12.56a9.18,9.18,0,0,0-9.17-9.17H15.9a9.18,9.18,0,0,0-9.17,9.17V39.33a16.14,16.14,0,1,0,18.82,0ZM16.14,64.55a12.14,12.14,0,0,1-5.39-23V37.21h0V12.56A5.18,5.18,0,0,1,15.9,7.39h.48a5.18,5.18,0,0,1,5.17,5.17V37.22h0v4.33a12.14,12.14,0,0,1-5.39,23Z"/><path class="cls-1" d="M18.18,45.58V27.31H14.1V45.58a7.12,7.12,0,1,0,4.08,0Zm-2,10a3.13,3.13,0,1,1,3.12-3.12A3.12,3.12,0,0,1,16.14,55.53Z"/><path class="cls-1" d="M37.16,0a6.62,6.62,0,1,0,6.62,6.62A6.63,6.63,0,0,0,37.16,0Zm0,9.24a2.62,2.62,0,1,1,2.62-2.62A2.62,2.62,0,0,1,37.16,9.24Z"/></svg>