<svg id="Layer_1" data-name="Layer 1" xmlns="http://www.w3.org/2000/svg" viewBox="0 0 65.64 56.23"><defs><style>.cls-1{fill:#fff;}</style></defs><path class="cls-1" d="M2,18.81H36.59a9.41,9.41,0,1,0-9.4-9.41,2,2,0,1,0,4,0,5.4,5.4,0,1,1,5.4,5.41H2a2,2,0,0,0,0,4Z"/><path class="cls-1" d="M56.23,11.31a9.41,9.41,0,0,0-9.4,9.4,2,2,0,0,0,4,0,5.41,5.41,0,1,1,5.4,5.4H2a2,2,0,0,0,0,4H56.23a9.4,9.4,0,1,0,0-18.8Z"/><path class="cls-1" d="M40.83,37.42H2a2,2,0,0,0,0,4H40.83a5.41,5.41,0,1,1-5.41,5.4,2,2,0,0,0-4,0,9.41,9.41,0,1,0,9.41-9.4Z"/></svg>